<?xml version="1.0" encoding="utf-8"?>
<!-- Generator: Adobe Illustrator 15.0.0, SVG Export Plug-In . SVG Version: 6.00 Build 0)  -->
<!DOCTYPE svg PUBLIC "-//W3C//DTD SVG 1.1//EN" "http://www.w3.org/Graphics/SVG/1.1/DTD/svg11.dtd">
<svg version="1.1" id="Layer_1" xmlns="http://www.w3.org/2000/svg" xmlns:xlink="http://www.w3.org/1999/xlink" x="0px" y="0px"
	 width="150px" height="230px" viewBox="0 0 150 230" enable-background="new 0 0 150 230" xml:space="preserve">
<g>
	<g>
		<g>
			<path fill="#F8C810" d="M115.936,81.283c-0.006-0.808,0.214-0.917,1.083-1.015l2.756-0.244c0.761-0.07,0.951,0.237,0.951,1.093
				c0,1.854,0.95,4.142,2.898,4.142c1.901,0,2.757-1.473,2.947-2.804c0.902-5.655-9.553-11.121-10.028-18.962
				c-0.238-4.088,2.709-7.509,6.986-7.509c3.279,0,6.416,2.519,6.796,6.321c0.096,1.283,0.081,1.911-0.95,2.044l-2.614,0.245
				c-0.816,0.05-0.95-0.238-0.95-0.95c0-1.711-0.998-3.287-2.281-3.287c-2.187,0-2.424,2.139-2.329,3.089
				c0.522,5.323,9.078,10.123,9.98,17.585c0.523,4.277-2.661,8.587-7.557,8.602C118.947,89.645,115.966,85.546,115.936,81.283z"/>
			<path fill="#F8C810" d="M105.854,60.771h4.975c0.769-0.002,0.86-0.155,0.94-0.94l0.244-2.539c0.022-0.727-0.258-0.947-0.94-0.94
				h-9.921c-0.705,0-0.94,0.235-0.94,0.94l0.004,12.913c0,0.219-0.176,0.396-0.394,0.399h-0.689c-0.705,0-0.845,0.114-0.94,0.942
				l-0.244,2.542c-0.057,0.725,0.235,0.942,0.94,0.942h0.95c0.21,0.012,0.377,0.182,0.377,0.396l-0.004,12.898
				c0,0.705,0.235,0.94,0.94,0.94h9.921c0.705,0,0.854-0.179,0.94-0.94l0.244-2.539c0.059-0.764-0.193-0.948-0.94-0.94h-5.463
				c-0.94,0-0.94,0-0.94-0.94v-7.949c0-0.94,0-0.94,0.94-0.94h4.975c0.705,0,0.884-0.194,0.94-0.94l0.244-2.539
				c0.073-0.765-0.235-0.94-0.94-0.94h-5.219c-0.94,0-0.94,0-0.94-0.94V61.71C104.914,60.771,104.914,60.771,105.854,60.771z"/>
			<path fill="#F8C810" d="M46.982,60.771h4.975c0.769-0.002,0.861-0.155,0.94-0.94l0.244-2.539c0.022-0.727-0.258-0.947-0.94-0.94
				h-9.92c-0.705,0-0.94,0.235-0.94,0.94l0.004,12.913c0,0.219-0.176,0.396-0.394,0.399h-0.689c-0.705,0-0.844,0.114-0.94,0.942
				l-0.245,2.542c-0.057,0.725,0.235,0.942,0.94,0.942h0.95c0.21,0.012,0.377,0.182,0.377,0.396L41.34,88.322
				c0,0.705,0.235,0.94,0.94,0.94h9.92c0.706,0,0.854-0.179,0.94-0.94l0.245-2.539c0.058-0.764-0.194-0.948-0.94-0.94h-5.463
				c-0.94,0-0.94,0-0.94-0.94v-7.949c0-0.94,0-0.94,0.94-0.94h4.975c0.705,0,0.884-0.194,0.94-0.94l0.244-2.539
				c0.073-0.765-0.235-0.94-0.94-0.94h-5.219c-0.94,0-0.94,0-0.94-0.94V61.71C46.042,60.771,46.042,60.771,46.982,60.771z"/>
			<path fill="#F8C810" d="M94.724,88.463L88.8,57.197c-0.141-0.705-0.282-0.846-1.034-0.846h-5.272c-0.705,0-0.811,0.174-0.94,0.94
				l-0.387,2.539c-0.115,0.729,0.235,0.94,0.94,0.94h0.77c0.331,0,0.581,0.302,0.52,0.627l-5.128,27.066
				c-0.141,0.799,0.329,0.799,0.8,0.799h2.82c0.611,0,0.894,0,1.035-0.706l0.423-2.539c0.188-0.941,0.188-0.941,1.081-0.941h4.185
				c0.847,0,0.847,0,1.035,0.941l0.423,2.539c0.141,0.706,0.423,0.706,1.034,0.706h2.821C94.395,89.263,94.865,89.263,94.724,88.463
				z M87.812,80.658H85.18c-0.94,0-0.94,0-0.8-0.94l1.928-11.425c0.047-0.235,0.329-0.235,0.376,0l1.928,11.425
				C88.753,80.658,88.753,80.658,87.812,80.658z"/>
			<path fill="#F8C810" d="M73.719,66.6v-1.504c0-6.488-3.15-8.745-7.053-8.745h-8.151c-0.486,0-0.793,0.226-0.88,0.88l-0.245,2.377
				c-0.041,0.541,0.394,0.88,0.88,0.88h0.915c0.235,0,0.426,0.191,0.426,0.426l0.002,27.407c0,0.705,0.235,0.94,0.94,0.94h2.821
				c0.705,0,0.94-0.235,0.94-0.94V76.427c0-0.94,0-0.94,0.941-0.94h0.893c0.188,0,0.47,0,0.564,0.423l2.398,12.647
				c0.141,0.706,0.423,0.706,1.035,0.706h2.962c0.376,0,0.752-0.235,0.564-0.987l-2.821-14.011
				C72.496,73.042,73.719,70.879,73.719,66.6z M69.017,68.011c0,2.398-0.894,3.338-2.351,3.338h-1.41c-0.941,0-0.941,0-0.941-0.94
				v-8.98c0-0.94,0-0.94,0.941-0.94h1.41c1.458,0,2.351,0.94,2.351,3.385V68.011z"/>
			<path fill="#F8C810" d="M27.458,56.37h-5.594h-1.972c-0.588,0-0.812,0.336-0.881,0.88l-0.245,2.67
				c-0.043,0.555,0.303,0.881,0.88,0.88h0.792c0.235,0,0.426,0.191,0.426,0.426l0.01,27.114c0,0.705,0.235,0.94,0.94,0.94h5.642
				c3.902,0,7.522-2.445,7.522-8.933V65.304C34.98,58.815,31.36,56.37,27.458,56.37z M30.279,81.477
				c0,2.445-1.363,3.386-2.821,3.386h-0.94c-0.94,0-0.94,0-0.94-0.988V61.73c0-0.94,0-0.94,0.94-0.94h0.94
				c1.458,0,2.821,0.94,2.821,3.385V81.477z"/>
		</g>
		<g>
			<path fill="#F8C810" d="M45.142,108.031h-0.261c-0.143,0-0.214-0.047-0.261-0.166l-1.4-3.605h-0.059h-0.747
				c-0.178,0-0.226,0.047-0.226,0.226v3.297c0,0.178-0.071,0.249-0.249,0.249h-0.143c-0.178,0-0.249-0.071-0.249-0.249v-8.397
				c0-0.178,0.071-0.249,0.249-0.249h1.364c1.043,0,1.779,0.7,1.779,2.087v0.949c0,1.067-0.427,1.72-1.103,1.969l1.436,3.653
				C45.332,107.937,45.272,108.031,45.142,108.031z M43.161,103.69c0.569,0,1.139-0.427,1.139-1.471v-1.043
				c0-1.044-0.569-1.471-1.139-1.471h-0.747c-0.178,0-0.226,0.047-0.226,0.225v3.535c0,0.178,0.047,0.225,0.226,0.225H43.161z"/>
			<path fill="#F8C810" d="M50.04,99.374c0.035-0.202,0.118-0.237,0.308-0.237h0.119c0.189,0,0.261,0.036,0.309,0.237l1.708,8.42
				c0.036,0.178-0.047,0.237-0.178,0.237h-0.178c-0.154,0-0.226-0.059-0.261-0.237l-0.403-1.968
				c-0.035-0.143-0.083-0.167-0.237-0.167h-1.637c-0.154,0-0.213,0.024-0.237,0.167l-0.403,1.968
				c-0.035,0.178-0.106,0.237-0.26,0.237H48.51c-0.13,0-0.213-0.059-0.178-0.237L50.04,99.374z M49.613,105.09h1.589
				c0.06,0,0.106-0.036,0.095-0.13l-0.818-4.234c-0.023-0.083-0.13-0.083-0.143,0l-0.818,4.234
				C49.494,105.054,49.554,105.09,49.613,105.09z"/>
			<path fill="#F8C810" d="M55.757,106.039v-4.91c0-1.387,0.735-2.087,1.779-2.087c0.973,0,1.601,0.617,1.708,1.602
				c0.012,0.106-0.012,0.213-0.154,0.213h-0.237c-0.13,0-0.178-0.036-0.202-0.154c-0.13-0.64-0.545-1.043-1.103-1.043
				c-0.581,0-1.15,0.427-1.15,1.47v4.91c0,1.044,0.569,1.471,1.15,1.471c0.558,0,0.973-0.403,1.103-1.044
				c0.024-0.119,0.071-0.154,0.202-0.154h0.237c0.142,0,0.166,0.106,0.154,0.213c-0.107,0.985-0.735,1.602-1.708,1.602
				C56.492,108.126,55.757,107.427,55.757,106.039z"/>
			<path fill="#F8C810" d="M63.62,102.884c0,0.178,0.047,0.226,0.225,0.226h1.755c0.178,0,0.249,0.071,0.249,0.249v0.071
				c0,0.178-0.071,0.249-0.249,0.249h-1.755c-0.178,0-0.225,0.047-0.225,0.226v3.333c0,0.178,0.047,0.225,0.225,0.225h1.755
				c0.178,0,0.249,0.071,0.249,0.249v0.071c0,0.178-0.071,0.249-0.249,0.249h-2.372c-0.178,0-0.249-0.071-0.249-0.249v-8.397
				c0-0.178,0.071-0.249,0.249-0.249h2.372c0.178,0,0.249,0.071,0.249,0.249v0.071c0,0.178-0.071,0.249-0.249,0.249h-1.755
				c-0.178,0-0.225,0.047-0.225,0.225V102.884z"/>
			<path fill="#F8C810" d="M72.456,99.385v0.071c0,0.178-0.071,0.249-0.249,0.249h-1.755c-0.178,0-0.225,0.047-0.225,0.225v2.953
				c0,0.178,0.047,0.226,0.225,0.226h1.162c0.178,0,0.249,0.071,0.249,0.249v0.071c0,0.178-0.071,0.249-0.249,0.249h-1.162
				c-0.178,0-0.225,0.047-0.225,0.226v3.878c0,0.178-0.071,0.249-0.249,0.249h-0.143c-0.178,0-0.249-0.071-0.249-0.249v-8.397
				c0-0.178,0.071-0.249,0.249-0.249h2.372C72.384,99.136,72.456,99.207,72.456,99.385z"/>
			<path fill="#F8C810" d="M75.895,99.385c0-0.178,0.071-0.249,0.249-0.249h0.143c0.178,0,0.249,0.071,0.249,0.249v8.397
				c0,0.178-0.071,0.249-0.249,0.249h-0.143c-0.178,0-0.249-0.071-0.249-0.249V99.385z"/>
			<path fill="#F8C810" d="M80.972,102.884c0,0.178,0.047,0.226,0.225,0.226h1.756c0.178,0,0.249,0.071,0.249,0.249v0.071
				c0,0.178-0.071,0.249-0.249,0.249h-1.756c-0.178,0-0.225,0.047-0.225,0.226v3.333c0,0.178,0.047,0.225,0.225,0.225h1.756
				c0.178,0,0.249,0.071,0.249,0.249v0.071c0,0.178-0.071,0.249-0.249,0.249H80.58c-0.178,0-0.249-0.071-0.249-0.249v-8.397
				c0-0.178,0.071-0.249,0.249-0.249h2.372c0.178,0,0.249,0.071,0.249,0.249v0.071c0,0.178-0.071,0.249-0.249,0.249h-1.756
				c-0.178,0-0.225,0.047-0.225,0.225V102.884z"/>
			<path fill="#F8C810" d="M90.163,99.385v0.071c0,0.178-0.071,0.249-0.249,0.249h-0.996c-0.178,0-0.226,0.047-0.226,0.225v7.852
				c0,0.178-0.071,0.249-0.249,0.249h-0.143c-0.178,0-0.249-0.071-0.249-0.249v-7.852c0-0.178-0.047-0.225-0.226-0.225H86.83
				c-0.178,0-0.249-0.071-0.249-0.249v-0.071c0-0.178,0.071-0.249,0.249-0.249h3.084C90.092,99.136,90.163,99.207,90.163,99.385z"/>
			<path fill="#F8C810" d="M95.394,108.126c-1.104,0-1.91-0.878-1.969-1.838c0-0.107,0.012-0.213,0.154-0.213h0.249
				c0.13,0,0.189,0.035,0.201,0.154c0.095,0.712,0.641,1.281,1.376,1.281c0.747,0,1.305-0.582,1.305-1.4
				c0-1.933-3.119-3.261-3.119-5.301c0-0.997,0.759-1.768,1.72-1.768c0.948,0,1.625,0.759,1.72,1.602
				c0.012,0.106-0.012,0.213-0.154,0.213h-0.249c-0.131,0-0.178-0.036-0.202-0.154c-0.13-0.64-0.533-1.043-1.091-1.043
				c-0.616,0-1.103,0.486-1.103,1.115c0,1.589,3.119,3.083,3.119,5.302C97.351,107.249,96.484,108.126,95.394,108.126z"/>
			<path fill="#F8C810" d="M101.608,102.884c0,0.178,0.047,0.226,0.225,0.226h1.756c0.178,0,0.249,0.071,0.249,0.249v0.071
				c0,0.178-0.071,0.249-0.249,0.249h-1.756c-0.178,0-0.225,0.047-0.225,0.226v3.333c0,0.178,0.047,0.225,0.225,0.225h1.756
				c0.178,0,0.249,0.071,0.249,0.249v0.071c0,0.178-0.071,0.249-0.249,0.249h-2.372c-0.178,0-0.249-0.071-0.249-0.249v-8.397
				c0-0.178,0.071-0.249,0.249-0.249h2.372c0.178,0,0.249,0.071,0.249,0.249v0.071c0,0.178-0.071,0.249-0.249,0.249h-1.756
				c-0.178,0-0.225,0.047-0.225,0.225V102.884z"/>
			<path fill="#F8C810" d="M111.487,99.385v8.397c0,0.178-0.071,0.249-0.249,0.249h-0.118c-0.179,0-0.249-0.047-0.32-0.249
				l-2.455-6.583c-0.036-0.095-0.131-0.071-0.131,0.012v6.571c0,0.178-0.071,0.249-0.249,0.249h-0.143
				c-0.178,0-0.249-0.071-0.249-0.249v-8.397c0-0.178,0.071-0.249,0.249-0.249h0.119c0.178,0,0.249,0.047,0.32,0.249l2.455,6.583
				c0.035,0.095,0.13,0.071,0.13-0.012v-6.57c0-0.178,0.071-0.249,0.249-0.249h0.143C111.416,99.136,111.487,99.207,111.487,99.385z
				"/>
		</g>
		<path fill="#F8C810" d="M114.151,25.13L77.332,3.392c-0.479-0.282-1.079-0.282-1.558,0L38.956,25.13
			c-0.962,0.568-0.962,1.926,0,2.495l36.819,21.739c0.479,0.282,1.079,0.282,1.558,0l36.819-21.739
			C115.113,27.056,115.113,25.698,114.151,25.13z M87.278,34.405c-0.834,5.068-5.404,8.865-10.728,8.865
			c-5.328,0-9.901-3.804-10.73-8.879c-0.047-0.291,0.162-0.573,0.452-0.626c0.54-0.098,1.267-0.219,2.153-0.339
			c0.308-0.042,0.6,0.17,0.64,0.478c0.471,3.627,3.687,6.396,7.485,6.396c3.802,0,7.02-2.773,7.487-6.404
			c0.039-0.304,0.324-0.516,0.627-0.474c0.711,0.099,1.429,0.213,2.152,0.344C87.111,33.82,87.327,34.111,87.278,34.405z
			 M90.782,15.761l-2.74,15.134c-0.053,0.289-0.331,0.476-0.618,0.421c-10.037-1.902-18.928-0.54-21.711-0.008
			c-0.287,0.055-0.561-0.136-0.613-0.424l-2.775-15.147c-0.09-0.493,0.492-0.822,0.868-0.491l5.781,5.193
			c0.258,0.228,0.663,0.15,0.819-0.157l6.262-10.51c0.196-0.385,0.747-0.385,0.941,0.001l6.403,10.44
			c0.154,0.307,0.557,0.386,0.816,0.161l5.702-5.107C90.295,14.942,90.871,15.271,90.782,15.761z"/>
	</g>
	<g>
		<path fill="#F8C810" d="M23.04,196.291c2.714,0.35,5.217,2.042,6.248,4.123c1.17,2.43,0.444,5.154-1.754,6.884
			c-1.591,1.253-3.673,1.75-5.897,1.952c-3.276-0.11-6.833,0.036-9.922-0.146c-0.397-0.074-0.58-0.38-0.678-0.664
			c-0.122-0.354,0.374-0.717,0.772-0.828c0.351-0.11,0.631-0.239,0.795-0.533c0.329-2.964,0.352-5.45,0.118-8.486
			c-0.328-0.737-2.387-0.939-1.286-1.989c0.231-0.257,0.759-0.326,1.216-0.349L23.04,196.291z M22.432,199.604
			c-0.679-0.902-1.896-1.159-3.136-1.179c-0.421,0.037-0.608,0.24-0.749,0.517c-0.094,2.706-0.047,5.301,0.187,7.952
			c0,0,0.042,0.306,0.374,0.368c1.083,0.203,2.13-0.147,2.925-0.718C24.023,204.666,23.812,201.647,22.432,199.604"/>
		<path fill="#F8C810" d="M74.876,197.229c0.984,0.809,1.147,1.987,0.843,3.037c-0.326,0.718-1.006,1.399-1.848,1.858
			c0.07,0.774,1.449,0.715,1.94,1.194c1.261,1.343,0.283,3.335,2.599,3.979c0.346,0.096,0.352,0.462,0.235,0.701
			c-0.501,1.024-2.294,1.141-3.604,1.195c-1.286-0.091-2.667-0.202-3.416-1.142c-0.865-1.454-0.889-3.313-2.691-4.326
			c-0.304-0.166-0.954-0.049-1.194,0.222c-0.204,0.231-0.069,1.676,0,2.467c0.119,0.957,2.365,0.921,1.522,2.116
			c-0.862,0.906-4.329,0.885-6.458,0.627c-0.673-0.082-1.452-0.189-1.803-0.793c-0.373-0.79,1.235-1.135,1.31-1.729
			c0.211-2.743,0.305-5.116,0.095-7.953c-0.281-0.902-2.246-0.661-1.686-1.859c0.16-0.339,0.544-0.521,0.914-0.532
			c2.952-0.094,7.417-0.166,11.231-0.037C73.613,196.438,74.315,196.714,74.876,197.229 M69.658,198.425
			c-0.261-0.271-0.679-0.312-1.124-0.312c-0.421,0-0.99,0.299-1.039,0.601c-0.164,1.032-0.057,2.718,0.08,2.879
			c0.224,0.264,0.607,0.416,1.006,0.404c0.583-0.015,1.184-0.301,1.403-0.921C70.313,200.156,70.454,199.199,69.658,198.425"/>
		<path fill="#F8C810" d="M134.836,202.918l2.34,3.938c0.538,0.423,1.66,0.517,1.802,1.234c0.07,0.46-0.522,0.782-0.961,0.884
			c-2.455,0.294-5.706,0.312-7.674-0.129c-0.468-0.203-0.679-0.554-0.561-0.978c0.327-0.552,1.778-0.532,1.17-1.416
			c0,0-0.375-0.331-0.68-0.351c-1.729-0.107-3.283-0.312-4.969,0.058c-0.464,0.101-0.857,0.689-0.764,0.883
			c0.297,0.615,1.919,0.551,1.52,1.489c-0.702,0.88-2.291,0.783-3.579,0.755c-1.04-0.021-1.751-0.144-2.481-0.405
			c-0.438-0.155-0.373-0.607-0.28-0.918c0.166-0.558,1.147-0.498,1.639-0.921c1.708-2.56,3.159-5.192,4.259-7.954
			c-0.392-1.217-0.257-1.804,0.397-2.43c0.585-0.552,1.513-0.602,2.409-0.441c2.113,0.48,3.603,2.128,4.54,3.607L134.836,202.918z
			 M129.547,203.286c-0.104-0.168-1.288-1.934-1.369-2.034c-0.16-0.196-0.617-0.151-0.715,0.023
			c-0.356,0.642-0.941,1.597-1.157,2.055c-0.062,0.129-0.143,0.444,0.275,0.458c0.46,0.016,1.745,0.032,2.686-0.023
			C129.539,203.749,129.65,203.451,129.547,203.286"/>
		<path fill="#F8C810" d="M114.626,196.603c0.641,1.033,2.652,2.381,1.239,3.277c-1.068,0.678-3.607-1.157-5.567-1.453
			c-0.508-0.077-1.289-0.279-1.121,0.633c0.201,1.114,2.922,1.445,4.56,1.962c1.919,0.589,3.252,2.227,3.183,3.885
			c-0.065,1.546-1.076,2.927-2.854,3.589c-2.887,1.075-7.047,1.13-9.991-0.056c-0.959-0.386-1.709-2.116-1.521-3.441
			c0.188-0.24,0.257-0.516,0.679-0.571c2.059,0.019,2.456,2.173,4.423,2.394c0.771,0.165,2.105,0.276,2.807-0.185
			c0.258-0.185,0.439-0.464,0.351-0.699c-0.403-1.091-3.298-0.976-4.843-1.64c-1.808-0.774-3.065-2.282-3.09-3.938
			c-0.019-1.419,0.96-2.928,2.715-3.627c2.07-0.825,4.656-0.57,6.833-0.351C113.104,196.069,114.141,195.823,114.626,196.603"/>
		<path fill="#F8C810" d="M48.056,198.592c0.116,0.317,0.21,1.159-0.562,1.325c-1.989,0.404-2.475-1.745-4.422-1.774
			c-1.06-0.016-2.672-0.326-3.276,0.725c-0.284,0.494-0.4,2.655,0.607,3.001c0.539,0.11,1.053,0,1.405-0.349
			c0.466-0.467,0.444-1.309,1.311-1.474c0.444-0.037,1.099,0.203,1.168,0.627c0.398,1.397,0.235,2.999-0.281,4.38
			c-0.132,0.284-0.724,0.441-1.169,0.295c-1.1-0.405-0.562-1.896-2.153-1.804c-0.285,0.015-0.585,0.073-0.773,0.312
			c-0.667,0.853-0.431,1.918-0.134,2.827c0.312,0.956,2.724,0.724,3.902,0.652c2.015-0.12,2.597-1.823,4.142-2.431
			c0.379-0.148,0.991,0.171,1.006,0.534c0.022,1.252-0.562,2.632-1.288,3.811c-0.489,0.797-1.895,0.093-2.737-0.056l-11.512-0.036
			c-0.35-0.019-0.812-0.264-0.851-0.736c-0.035-0.441,0.352-0.737,0.716-0.812c0.373-0.077,1.049-0.239,1.152-0.681
			c0.375-2.945,0.479-5.318,0.106-8.337c-0.47-0.756-1.873-0.441-1.803-1.454c0-0.369,0.428-0.67,0.772-0.7
			c4.142-0.202,7.347,0,11.514-0.146c0.491-0.186,1.091-0.374,1.638-0.166C47.376,196.443,47.797,197.874,48.056,198.592"/>
		<path fill="#F8C810" d="M90.12,195.902c-4.964,0-8.989,3.034-8.989,6.775c0,3.743,4.025,6.776,8.989,6.776
			c4.965,0,8.987-3.033,8.987-6.776C99.107,198.937,95.085,195.902,90.12,195.902z M95.961,203.089
			c-0.381,0.711-1.061,1.178-1.738,1.577c-0.159,0.093-0.323,0.185-0.487,0.277c-0.171,0.096-0.343,0.193-0.512,0.292
			c-0.274,0.163-0.594,0.361-0.872,0.595c-0.197,0.164-0.416,0.332-0.638,0.503c-0.127,0.097-0.254,0.194-0.38,0.294
			c-0.295,0.23-0.629,0.504-0.878,0.775l-0.335,0.37l-0.338-0.369c-0.242-0.268-0.579-0.543-0.876-0.776
			c-0.118-0.093-0.238-0.185-0.357-0.275c-0.23-0.177-0.457-0.352-0.661-0.521c-0.277-0.233-0.597-0.432-0.872-0.595
			c-0.169-0.099-0.342-0.196-0.514-0.293c-0.163-0.092-0.326-0.184-0.485-0.276c-0.679-0.4-1.357-0.867-1.737-1.577
			c-0.502-0.935-0.282-2.181,0.523-2.963c0.599-0.579,1.382-0.884,2.465-0.958c1.362-0.095,2.319,0.662,2.838,1.233
			c0.523-0.571,1.488-1.333,2.866-1.233c1.081,0.074,1.864,0.379,2.464,0.958l0,0C96.242,200.907,96.463,202.153,95.961,203.089z"/>
	</g>
	<g>
		<path fill="#F8C810" d="M137.662,158.967v-15.835h-4.267l0.001,8.603c-0.062,2.536-1.023,4.267-2.961,4.267h-14.614
			c-0.146,0.001-0.315-0.247-0.315-0.485c0-0.334,0.173-0.539,0.315-0.539h6.639c1.08,0,1.929-0.685,1.929-1.755v-3.187
			c0-1.07-0.879-1.941-1.96-1.941c-0.008,0-0.017,0-0.025,0h-8.884c-0.009,0-0.018,0-0.025,0c-1.292,0-2.343,1.041-2.343,2.32v1.08
			c0,3.058-0.96,4.507-2.963,4.507h-7.337l-0.001-5.386c0.001-0.006,0.001-0.012,0.001-0.018c0-1.27-1.043-2.307-2.33-2.312h-6.539
			v-5.153h-4.267v8.272c-0.002,0.029-0.003,0.059-0.003,0.088c0,2.996-0.879,4.509-2.854,4.509H77.38v-12.869h-4.266v8.362
			c0,2.697-0.912,4.507-2.915,4.507H55.258c-0.152,0-0.315-0.206-0.315-0.501c0-0.31,0.166-0.523,0.334-0.523h6.528
			c1.081,0,1.96-0.685,1.96-1.755v-3.187c0-1.07-0.879-1.941-1.959-1.941c-0.008,0-0.016,0-0.025,0h-8.885c-0.008,0-0.017,0-0.025,0
			c-1.292,0-2.342,1.041-2.342,2.32v1.184c-0.027,2.627-0.809,4.403-2.976,4.403h-6.058c-0.177,0-0.36-0.05-0.36-0.282v-6.875h3.149
			v-1.035v-1.393v-1.036h-3.149v-2.248h-4.267v2.248H14.591c-1.242,0-2.253,1.001-2.253,2.231v4.211v0.014v0.011
			c0,1.23,1.011,2.231,2.253,2.231l9.129-0.002c0.454,0,0.718,0.437,0.718,0.828c0,0.394-0.273,0.858-0.72,0.858H12.338v0.776v1.392
			v1.036h14.236c0.1,0,0.196-0.014,0.287-0.04c1.055-0.198,1.831-1.112,1.831-2.192v-4.211c0-0.004,0-0.008,0-0.012s0-0.007,0-0.01
			c0-1.23-1.011-2.231-2.253-2.231h-0.006l-9.479,0.002c-0.022-0.001-0.043-0.002-0.066-0.002c-0.397,0-0.72-0.319-0.72-0.714
			c0-0.393,0.323-0.713,0.72-0.713h19.982v7.793c0,0.006,0,0.012,0,0.018c0,0.008,0,0.016,0,0.023
			c0.012,1.262,1.055,2.287,2.333,2.289h8.353c1.347,0,2.501-0.338,3.403-0.979c0.422,0.59,1.117,0.977,1.901,0.979h17.279
			c1.144,0,2.148-0.245,2.978-0.712l0.002,0.712h11.619c0.024,0,0.049,0,0.073-0.003c1.113-0.01,2.093-0.255,2.904-0.711
			l0.002,0.714h10.807c0.602,0,1.158-0.229,1.578-0.609c0.573,0.291,1.224,0.48,1.944,0.562c0.272,0.031,0.557,0.047,0.845,0.047
			h5.286c1.348,0,2.503-0.339,3.405-0.98c0.424,0.592,1.12,0.978,1.901,0.98h16.941c1.162,0,2.182-0.252,3.019-0.732
			c0,0.436-0.002,0.291-0.002,0.732H137.662z M115.824,152.119c-0.138,0-0.243-0.213-0.245-0.439
			c-0.003-0.221,0.136-0.448,0.273-0.448c0.017,0,0.034,0,0.051-0.001h3.997c0.018,0.001,0.034,0.001,0.052,0.001
			c0.137,0,0.26,0.203,0.26,0.421c0,0.241-0.146,0.467-0.283,0.467H115.824z M55.249,152.115c-0.138,0-0.296-0.146-0.296-0.436
			c0-0.293,0.19-0.448,0.328-0.448h3.966c0.018,0.001,0.062,0,0.079,0c0.138,0,0.228,0.249,0.228,0.44
			c0,0.217-0.099,0.447-0.236,0.447L55.249,152.115z M95.987,156.001h-4.005v-4.77h4.002c0.283,0,0.601,0.207,0.601,0.599v3.559
			c0,0.523-0.344,0.612-0.521,0.612H95.987z"/>
	</g>
	<line fill="#F8C810" x1="2.062" y1="123.543" x2="147.938" y2="123.543"/>
	<line fill="#F8C810" x1="2.062" y1="178.743" x2="147.938" y2="178.743"/>
	<line fill="#F8C810" x1="2.062" y1="226.82" x2="147.938" y2="226.82"/>
</g>
</svg>
