<?xml version="1.0" encoding="utf-8"?>
<!-- Generator: Adobe Illustrator 15.0.0, SVG Export Plug-In . SVG Version: 6.00 Build 0)  -->
<!DOCTYPE svg PUBLIC "-//W3C//DTD SVG 1.1//EN" "http://www.w3.org/Graphics/SVG/1.1/DTD/svg11.dtd">
<svg version="1.1" id="Layer_1" xmlns="http://www.w3.org/2000/svg" xmlns:xlink="http://www.w3.org/1999/xlink" x="0px" y="0px"
	 width="100px" height="40px" viewBox="0 0 100 40" enable-background="new 0 0 100 40" xml:space="preserve">
<g>
	<path fill="#1A1715" d="M8.644,11.838L6.902,2.752c-0.038-0.205,0.026-0.255,0.18-0.255h1.356c0.166,0,0.268,0.051,0.307,0.255
		l0.781,4.761C9.538,7.603,9.654,7.616,9.68,7.526l0.998-4.773c0.039-0.217,0.128-0.255,0.333-0.255h0.64
		c0.204,0,0.281,0.038,0.332,0.255l0.986,4.773c0.025,0.09,0.141,0.077,0.153-0.013l0.794-4.761c0.024-0.205,0.14-0.255,0.307-0.255
		h1.355c0.142,0,0.219,0.051,0.18,0.255l-1.753,9.086c-0.038,0.218-0.115,0.256-0.332,0.256h-0.858
		c-0.204,0-0.294-0.051-0.332-0.256l-1.075-5.105c-0.026-0.09-0.141-0.09-0.154,0l-1.074,5.105
		c-0.051,0.205-0.128,0.256-0.333,0.256h-0.87C8.759,12.094,8.682,12.056,8.644,11.838z"/>
	<path fill="#1A1715" d="M17.049,2.766c0-0.192,0.077-0.269,0.269-0.269h1.305c0.192,0,0.27,0.076,0.27,0.269v9.061
		c0,0.191-0.077,0.268-0.27,0.268h-1.305c-0.191,0-0.269-0.077-0.269-0.268V2.766z"/>
	<path fill="#1A1715" d="M22.409,6.157c0,0.192,0.052,0.243,0.243,0.243h1.843c0.191,0,0.269,0.077,0.269,0.269v1.1
		c0,0.192-0.077,0.27-0.269,0.27h-1.843c-0.191,0-0.243,0.051-0.243,0.243v1.933c0,0.191,0.052,0.243,0.243,0.243h1.843
		c0.191,0,0.269,0.077,0.269,0.269v1.101c0,0.191-0.077,0.268-0.269,0.268h-3.659c-0.192,0-0.27-0.077-0.27-0.268V2.766
		c0-0.192,0.077-0.269,0.27-0.269h3.659c0.191,0,0.269,0.076,0.269,0.269v1.101c0,0.192-0.077,0.269-0.269,0.269h-1.843
		c-0.191,0-0.243,0.051-0.243,0.243V6.157z"/>
	<path fill="#1A1715" d="M30.368,10.725v1.101c0,0.191-0.077,0.268-0.27,0.268h-3.455c-0.191,0-0.268-0.077-0.268-0.268V2.766
		c0-0.192,0.076-0.269,0.268-0.269h1.306c0.192,0,0.269,0.076,0.269,0.269v7.448c0,0.191,0.051,0.243,0.243,0.243h1.638
		C30.291,10.457,30.368,10.533,30.368,10.725z"/>
	<path fill="#1A1715" d="M33.54,6.157c0,0.192,0.051,0.243,0.243,0.243h1.842c0.192,0,0.27,0.077,0.27,0.269v1.1
		c0,0.192-0.077,0.27-0.27,0.27h-1.842c-0.192,0-0.243,0.051-0.243,0.243v1.933c0,0.191,0.051,0.243,0.243,0.243h1.842
		c0.192,0,0.27,0.077,0.27,0.269v1.101c0,0.191-0.077,0.268-0.27,0.268h-3.659c-0.191,0-0.269-0.077-0.269-0.268V2.766
		c0-0.192,0.077-0.269,0.269-0.269h3.659c0.192,0,0.27,0.076,0.27,0.269v1.101c0,0.192-0.077,0.269-0.27,0.269h-1.842
		c-0.192,0-0.243,0.051-0.243,0.243V6.157z"/>
	<path fill="#1A1715" d="M43.047,12.094h-1.434c-0.166,0-0.256-0.051-0.308-0.179L40.09,8.793h-0.499
		c-0.191,0-0.242,0.051-0.242,0.243v2.79c0,0.191-0.077,0.268-0.269,0.268h-1.306c-0.191,0-0.269-0.077-0.269-0.268V2.766
		c0-0.192,0.077-0.269,0.269-0.269h2.418c1.497,0,2.624,1.151,2.624,2.905v0.486c0,1.062-0.41,1.907-1.075,2.406l1.434,3.544
		C43.238,11.992,43.188,12.094,43.047,12.094z M39.591,7.065h0.41c0.513,0,0.973-0.396,0.973-1.254V5.389
		c0-0.857-0.46-1.253-0.973-1.253h-0.41c-0.191,0-0.242,0.051-0.242,0.243v2.444C39.349,7.014,39.399,7.065,39.591,7.065z"/>
	<path fill="#1A1715" d="M9.5,24.864c-1.549,0-2.751-1.037-2.764-2.676c0-0.129,0.013-0.23,0.166-0.23h1.306
		c0.14,0,0.217,0.051,0.23,0.193c0.051,0.484,0.345,1.15,1.074,1.15c0.524,0,0.883-0.346,0.909-0.857
		c0.18-1.664-3.545-2.431-3.545-5.029c0-1.356,0.973-2.38,2.534-2.38c1.663,0,2.508,1.113,2.533,2.507
		c0.013,0.128-0.013,0.231-0.166,0.231h-1.306c-0.141,0-0.205-0.052-0.218-0.192c-0.076-0.435-0.269-0.972-0.793-0.972
		c-0.486,0-0.768,0.384-0.717,0.819c0.18,1.292,3.545,2.342,3.545,4.901C12.29,24.083,10.741,24.864,9.5,24.864z"/>
	<path fill="#1A1715" d="M18.005,15.419v1.101c0,0.192-0.076,0.269-0.268,0.269h-1.14c-0.192,0-0.243,0.051-0.243,0.243v7.448
		c0,0.191-0.077,0.27-0.27,0.27h-1.304c-0.192,0-0.27-0.078-0.27-0.27v-7.448c0-0.192-0.051-0.243-0.243-0.243h-1.14
		c-0.191,0-0.269-0.077-0.269-0.269v-1.101c0-0.192,0.077-0.268,0.269-0.268h4.608C17.929,15.151,18.005,15.227,18.005,15.419z"/>
	<path fill="#1A1715" d="M24.938,15.419v4.773v1.383c0,1.982-0.909,3.289-2.803,3.289c-1.906,0-2.803-1.307-2.803-3.289v-2.189
		v-3.967c0-0.192,0.076-0.268,0.269-0.268h1.306c0.191,0,0.269,0.076,0.269,0.268v4.697v1.459c0,0.895,0.243,1.586,0.96,1.586
		s0.946-0.691,0.946-1.586v-2.202v-3.955c0-0.192,0.077-0.268,0.27-0.268h1.318C24.86,15.151,24.938,15.227,24.938,15.419z"/>
	<path fill="#1A1715" d="M32.359,18.491v2.918c0,2.033-0.909,3.34-2.969,3.34h-2.38c-0.192,0-0.269-0.078-0.269-0.27v-9.061
		c0-0.192,0.076-0.268,0.269-0.268h2.38C31.45,15.151,32.359,16.456,32.359,18.491z M30.517,18.414c0-0.934-0.243-1.625-1.216-1.625
		h-0.473c-0.192,0-0.244,0.051-0.244,0.243v5.834c0,0.193,0.052,0.244,0.244,0.244h0.473c0.973,0,1.216-0.691,1.216-1.625V18.414z"
		/>
	<path fill="#1A1715" d="M34.028,15.419c0-0.192,0.077-0.268,0.27-0.268h1.305c0.191,0,0.269,0.076,0.269,0.268v9.061
		c0,0.191-0.077,0.27-0.269,0.27h-1.305c-0.192,0-0.27-0.078-0.27-0.27V15.419z"/>
	<path fill="#1A1715" d="M37.659,21.575v-3.251c0-1.983,0.896-3.288,2.802-3.288c1.895,0,2.803,1.305,2.803,3.288v3.251
		c0,1.982-0.908,3.289-2.803,3.289C38.555,24.864,37.659,23.558,37.659,21.575z M41.407,21.575v-3.251
		c0-0.896-0.229-1.586-0.946-1.586s-0.96,0.691-0.96,1.586v3.251c0,0.895,0.243,1.586,0.96,1.586S41.407,22.47,41.407,21.575z"/>
	<path fill="#1A1715" d="M8.016,36.634c-0.038,0.104,0,0.154,0.09,0.154h2.649c0.191,0,0.269,0.076,0.269,0.268v0.078
		c0,0.191-0.077,0.268-0.269,0.268H7.542c-0.191,0-0.269-0.076-0.269-0.268v-0.154c0-0.129,0.064-0.281,0.115-0.436l2.893-7.973
		c0.038-0.102,0-0.152-0.09-0.152H7.542c-0.191,0-0.269-0.078-0.269-0.27v-0.076c0-0.193,0.077-0.27,0.269-0.27h3.213
		c0.191,0,0.269,0.076,0.269,0.27v0.154c0,0.127-0.063,0.281-0.115,0.434L8.016,36.634z"/>
	<path fill="#1A1715" d="M14.398,37.146l-1.497-9.086c-0.039-0.205,0.038-0.256,0.179-0.256h0.217c0.167,0,0.282,0.051,0.308,0.256
		l1.114,7.486c0.012,0.102,0.141,0.102,0.153,0l1.305-7.486c0.039-0.217,0.129-0.256,0.333-0.256h0.128
		c0.205,0,0.294,0.039,0.332,0.256l1.306,7.486c0.013,0.102,0.142,0.102,0.154,0l1.113-7.486c0.024-0.205,0.141-0.256,0.307-0.256
		h0.218c0.141,0,0.217,0.051,0.179,0.256l-1.496,9.086c-0.039,0.217-0.129,0.256-0.333,0.256h-0.129
		c-0.204,0-0.294-0.039-0.332-0.256l-1.306-7.486c-0.013-0.09-0.141-0.09-0.153,0l-1.305,7.486
		c-0.039,0.217-0.129,0.256-0.333,0.256H14.73C14.526,37.401,14.437,37.362,14.398,37.146z"/>
	<path fill="#1A1715" d="M22.198,35.251v-5.297c0-1.498,0.794-2.252,1.92-2.252s1.92,0.754,1.92,2.252v5.297
		c0,1.498-0.794,2.252-1.92,2.252S22.198,36.749,22.198,35.251z M25.347,35.251v-5.297c0-1.127-0.614-1.586-1.229-1.586
		c-0.615,0-1.229,0.459-1.229,1.586v5.297c0,1.127,0.613,1.588,1.229,1.588C24.732,36.839,25.347,36.378,25.347,35.251z"/>
	<path fill="#1A1715" d="M31.982,37.056v0.078c0,0.191-0.076,0.268-0.268,0.268H29.04c-0.191,0-0.269-0.076-0.269-0.268v-9.061
		c0-0.193,0.077-0.27,0.269-0.27h0.153c0.191,0,0.269,0.076,0.269,0.27v8.471c0,0.193,0.051,0.244,0.243,0.244h2.01
		C31.906,36.788,31.982,36.864,31.982,37.056z"/>
	<path fill="#1A1715" d="M37.358,37.056v0.078c0,0.191-0.077,0.268-0.269,0.268h-2.675c-0.191,0-0.269-0.076-0.269-0.268v-9.061
		c0-0.193,0.077-0.27,0.269-0.27h0.153c0.192,0,0.27,0.076,0.27,0.27v8.471c0,0.193,0.051,0.244,0.243,0.244h2.009
		C37.281,36.788,37.358,36.864,37.358,37.056z"/>
	<path fill="#1A1715" d="M40.154,31.849c0,0.191,0.052,0.242,0.243,0.242h1.894c0.192,0,0.269,0.076,0.269,0.27v0.076
		c0,0.191-0.076,0.27-0.269,0.27h-1.894c-0.191,0-0.243,0.051-0.243,0.242v3.596c0,0.193,0.052,0.244,0.243,0.244h1.894
		c0.192,0,0.269,0.076,0.269,0.268v0.078c0,0.191-0.076,0.268-0.269,0.268h-2.559c-0.192,0-0.27-0.076-0.27-0.268v-9.061
		c0-0.193,0.077-0.27,0.27-0.27h2.559c0.192,0,0.269,0.076,0.269,0.27v0.076c0,0.191-0.076,0.27-0.269,0.27h-1.894
		c-0.191,0-0.243,0.051-0.243,0.242V31.849z"/>
</g>
<g>
	<rect x="50" fill="#1A1715" width="50" height="40"/>
	<g>
		<g>
			<path fill="#FFFFFF" d="M89.267,7.768c-0.016,0.206-0.062,0.417-0.14,0.63c-0.438,1.183-0.988,1.418-2.41,2.258
				c0,0-0.123,0.082-0.247,0.06c-0.138-0.024-0.27-0.16-0.245-0.318c0.018-0.118,0.085-0.148,0.188-0.246
				c0.335-0.317,1.451-0.811,1.752-1.3c0.653-1.066,0.282-1.79,0.086-2.133l-3.374,1.006c-1.301,0.564-1.279,1.053-1.633,1.127
				c-0.354,0.075-0.219,0.574-0.134,1.351c0.081,0.733,0.475,3.418,0.475,3.418s2.649-2.257,4.985-0.923
				c2.143,1.223,3.701,4.848,2.666,9.149c-1.035,4.303-3.104,8.064-7.34,7.74c0,0-2.814-0.316-3.671-3.779
				c-0.898-3.633,0.407-7.951,1.535-9.889l0.633-0.988l-0.19-1.221L77.32,24.114c0,0,0.752,0.711,0.772,1.814
				c0,0,0.94-0.41,1.219-0.506c0.356-0.123,0.635,0.469,0.192,0.727c-0.354,0.207-1.366,0.752-1.366,0.752s-0.263,3.125-2.43,3.555
				c0,0-1.343,0.238-1.877-1.715c0,0-0.644,3.799-2.509,6.703c-0.364,0.568-0.748,1.062-1.159,1.502
				c0.97,0.184,1.982,0.279,3.031,0.279c9.399,0,18.09-7.713,19.411-17.226C93.27,15.217,91.944,10.889,89.267,7.768z"/>
			<path fill="#FFFFFF" d="M65.411,19.075c1.615-0.744,3.308-0.849,4.765-0.309l1.437-2.545c0,0-1.103-4.883-1.41-6.149
				c-0.308-1.266-1.146-1.522-1.146-1.522s-0.449,0.153-1.023,0.301C67.457,9,67.227,8.683,66.779,8.46
				c-0.446-0.223-0.752-0.466,0.184-0.845c0.937-0.379,0.941-0.068,2.229-0.357c1.286-0.289,3.529-1.003,3.832-0.699
				c0.303,0.304-0.455,0.404-1.068,0.601c-0.613,0.196-0.965,0.662-1.504,0.81c-0.54,0.147,0.506,0.392,0.727,1.319
				s0.904,3.761,0.904,3.761l9.575-3.028c0,0-0.048-0.577-0.309-0.761c-0.262-0.184-0.871-0.23-0.573-0.7
				c0.299-0.469,1.268-0.245,1.477-0.642c0.21-0.397-0.109-0.994,0.684-0.899c0.543,0.065,0.339,0.532,0.339,0.532
				s3.155-1.027,4.349-1.408c-2.533-2.117-5.857-3.37-9.646-3.37c-9.399,0-18.09,7.712-19.411,17.225
				c-0.336,2.417-0.163,4.718,0.436,6.806C59.571,25.294,61.521,20.865,65.411,19.075z"/>
		</g>
		<path fill="#FFFFFF" d="M89.991,22.181c-0.847,3.756-3.443,6.428-5.741,5.91s-3.426-4.029-2.578-7.785
			c0.846-3.755,3.396-6.476,5.693-5.958C89.662,14.866,90.838,18.426,89.991,22.181z"/>
		<path fill="#FFFFFF" d="M69.454,21.075c-3.168-1.284-7.281,1.557-9.367,6.709c-0.134,0.33-0.257,0.66-0.369,0.988
			c1.698,3.799,4.93,6.658,9.073,7.848c0.991-1.098,1.865-2.475,2.514-4.078C73.391,27.392,72.623,22.358,69.454,21.075z"/>
		<path fill="#FFFFFF" d="M81.781,11.233c-0.603,0.816-1.258,1.025-1.573,1.163c-0.403,0.177-0.598,0.026-0.598-0.17
			c0-0.208,0.321-0.303,0.321-0.303c1.023-0.353,1.33-0.848,1.418-1.057c-0.046,0-0.076,0.007-0.076,0.007s-5.882,1.973-7.744,2.667
			c-1.35,0.503-1.006,1.349-1.006,1.349l2.423,9.615c0.521-0.672,1.27-0.855,1.27-0.855s4.824-10.48,5.128-11.065
			c0.426-0.821,0.525-0.755,0.453-1.268C81.787,11.254,81.797,11.314,81.781,11.233z"/>
	</g>
</g>
</svg>
