<?xml version="1.0" encoding="utf-8"?>
<!-- Generator: Adobe Illustrator 15.0.0, SVG Export Plug-In . SVG Version: 6.00 Build 0)  -->
<!DOCTYPE svg PUBLIC "-//W3C//DTD SVG 1.1//EN" "http://www.w3.org/Graphics/SVG/1.1/DTD/svg11.dtd">
<svg version="1.1" id="Layer_1" xmlns="http://www.w3.org/2000/svg" xmlns:xlink="http://www.w3.org/1999/xlink" x="0px" y="0px"
	 width="125px" height="50px" viewBox="0 0 125 50" enable-background="new 0 0 125 50" xml:space="preserve">
<rect y="0" fill="#FFFFFF" width="125" height="50"/>
<g>
	<path fill="#1A1715" d="M10.805,14.797L8.627,3.44C8.58,3.184,8.66,3.121,8.853,3.121h1.695c0.208,0,0.335,0.063,0.384,0.319
		l0.976,5.952c0.016,0.112,0.16,0.129,0.193,0.016l1.248-5.966c0.048-0.271,0.16-0.319,0.417-0.319h0.799
		c0.255,0,0.352,0.047,0.415,0.319l1.233,5.966c0.031,0.113,0.176,0.097,0.191-0.016l0.993-5.952
		c0.03-0.256,0.175-0.319,0.384-0.319h1.694c0.178,0,0.273,0.063,0.225,0.319l-2.191,11.357c-0.047,0.273-0.143,0.32-0.415,0.32
		h-1.072c-0.255,0-0.367-0.063-0.415-0.32L14.26,8.416c-0.033-0.112-0.176-0.112-0.193,0l-1.342,6.381
		c-0.064,0.256-0.161,0.32-0.416,0.32h-1.088C10.948,15.117,10.853,15.07,10.805,14.797z"/>
	<path fill="#1A1715" d="M21.311,3.458c0-0.24,0.096-0.336,0.336-0.336h1.631c0.24,0,0.337,0.096,0.337,0.336v11.327
		c0,0.238-0.096,0.334-0.337,0.334h-1.631c-0.239,0-0.336-0.096-0.336-0.334V3.458z"/>
	<path fill="#1A1715" d="M28.012,7.696c0,0.24,0.064,0.304,0.303,0.304h2.304c0.238,0,0.336,0.096,0.336,0.336v1.375
		c0,0.24-0.096,0.337-0.336,0.337h-2.304c-0.239,0-0.303,0.063-0.303,0.304v2.416c0,0.239,0.064,0.304,0.303,0.304h2.304
		c0.238,0,0.336,0.097,0.336,0.336v1.376c0,0.239-0.096,0.335-0.336,0.335h-4.574c-0.24,0-0.337-0.096-0.337-0.335V3.458
		c0-0.24,0.096-0.336,0.337-0.336h4.574c0.238,0,0.336,0.096,0.336,0.336v1.376c0,0.24-0.096,0.336-0.336,0.336h-2.304
		c-0.239,0-0.303,0.064-0.303,0.304V7.696z"/>
	<path fill="#1A1715" d="M37.96,13.406v1.376c0,0.239-0.096,0.334-0.337,0.334h-4.319c-0.238,0-0.335-0.096-0.335-0.334V3.458
		c0-0.24,0.095-0.336,0.335-0.336h1.633c0.24,0,0.336,0.096,0.336,0.336v9.31c0,0.239,0.064,0.304,0.304,0.304h2.048
		C37.864,13.071,37.96,13.167,37.96,13.406z"/>
	<path fill="#1A1715" d="M41.925,7.696c0,0.24,0.063,0.304,0.304,0.304h2.302c0.24,0,0.337,0.096,0.337,0.336v1.375
		c0,0.24-0.096,0.337-0.337,0.337h-2.302c-0.241,0-0.304,0.063-0.304,0.304v2.416c0,0.239,0.063,0.304,0.304,0.304h2.302
		c0.24,0,0.337,0.097,0.337,0.336v1.376c0,0.239-0.096,0.335-0.337,0.335h-4.574c-0.238,0-0.336-0.096-0.336-0.335V3.458
		c0-0.24,0.096-0.336,0.336-0.336h4.574c0.24,0,0.337,0.096,0.337,0.336v1.376c0,0.24-0.096,0.336-0.337,0.336h-2.302
		c-0.241,0-0.304,0.064-0.304,0.304V7.696z"/>
	<path fill="#1A1715" d="M53.809,15.117h-1.793c-0.207,0-0.319-0.063-0.384-0.224l-1.52-3.902h-0.624
		c-0.238,0-0.302,0.063-0.302,0.304v3.488c0,0.239-0.097,0.334-0.336,0.334h-1.633c-0.239,0-0.336-0.096-0.336-0.334V3.458
		c0-0.24,0.097-0.336,0.336-0.336h3.022c1.872,0,3.28,1.439,3.28,3.631V7.36c0,1.327-0.512,2.383-1.343,3.007l1.792,4.43
		C54.047,14.99,53.985,15.117,53.809,15.117z M49.488,8.831h0.513c0.642,0,1.217-0.495,1.217-1.567V6.736
		c0-1.071-0.575-1.566-1.217-1.566h-0.513c-0.238,0-0.302,0.064-0.302,0.304v3.056C49.187,8.768,49.249,8.831,49.488,8.831z"/>
	<path fill="#1A1715" d="M11.875,31.08c-1.936,0-3.438-1.296-3.455-3.346c0-0.161,0.017-0.287,0.208-0.287h1.632
		c0.175,0,0.271,0.063,0.288,0.24c0.063,0.605,0.432,1.438,1.343,1.438c0.655,0,1.104-0.433,1.136-1.071
		c0.225-2.079-4.432-3.038-4.432-6.286c0-1.695,1.217-2.975,3.168-2.975c2.079,0,3.135,1.391,3.166,3.134
		c0.017,0.16-0.016,0.288-0.208,0.288h-1.632c-0.176,0-0.256-0.064-0.272-0.239c-0.096-0.544-0.336-1.216-0.991-1.216
		c-0.607,0-0.96,0.48-0.896,1.024c0.225,1.614,4.432,2.928,4.432,6.126C15.362,30.104,13.427,31.08,11.875,31.08z"/>
	<path fill="#1A1715" d="M22.506,19.273v1.377c0,0.239-0.094,0.336-0.335,0.336h-1.424c-0.241,0-0.304,0.063-0.304,0.304v9.311
		c0,0.238-0.096,0.337-0.337,0.337h-1.63c-0.24,0-0.337-0.098-0.337-0.337V21.29c0-0.24-0.063-0.304-0.303-0.304h-1.425
		c-0.239,0-0.336-0.097-0.336-0.336v-1.377c0-0.24,0.097-0.335,0.336-0.335h5.76C22.412,18.938,22.506,19.034,22.506,19.273z"/>
	<path fill="#1A1715" d="M31.172,19.273v5.967v1.729c0,2.477-1.136,4.111-3.504,4.111c-2.382,0-3.503-1.635-3.503-4.111v-2.736
		v-4.959c0-0.24,0.095-0.335,0.336-0.335h1.632c0.239,0,0.336,0.095,0.336,0.335v5.872v1.823c0,1.118,0.304,1.982,1.201,1.982
		c0.896,0,1.182-0.864,1.182-1.982v-2.752v-4.944c0-0.24,0.097-0.335,0.337-0.335h1.647C31.075,18.938,31.172,19.034,31.172,19.273z
		"/>
	<path fill="#1A1715" d="M40.449,23.114v3.647c0,2.54-1.136,4.175-3.711,4.175h-2.976c-0.24,0-0.335-0.098-0.335-0.339V19.272
		c0-0.24,0.094-0.335,0.335-0.335h2.976C39.312,18.938,40.449,20.57,40.449,23.114z M38.146,23.018c0-1.168-0.304-2.031-1.521-2.031
		h-0.591c-0.24,0-0.305,0.063-0.305,0.304v7.293c0,0.24,0.065,0.304,0.305,0.304h0.591c1.216,0,1.521-0.863,1.521-2.031V23.018z"/>
	<path fill="#1A1715" d="M42.535,19.273c0-0.24,0.097-0.335,0.337-0.335h1.632c0.238,0,0.336,0.095,0.336,0.335v11.327
		c0,0.238-0.096,0.337-0.336,0.337h-1.632c-0.24,0-0.337-0.098-0.337-0.337V19.273z"/>
	<path fill="#1A1715" d="M47.074,26.969v-4.063c0-2.479,1.12-4.11,3.502-4.11c2.369,0,3.504,1.631,3.504,4.11v4.063
		c0,2.477-1.135,4.111-3.504,4.111C48.194,31.08,47.074,29.448,47.074,26.969z M51.759,26.969v-4.063
		c0-1.12-0.286-1.983-1.183-1.983c-0.896,0-1.2,0.864-1.2,1.983v4.063c0,1.118,0.304,1.982,1.2,1.982
		C51.473,28.951,51.759,28.087,51.759,26.969z"/>
	<path fill="#1A1715" d="M10.02,45.792c-0.047,0.131,0,0.193,0.112,0.193h3.311c0.239,0,0.336,0.095,0.336,0.335v0.097
		c0,0.239-0.096,0.336-0.336,0.336H9.428c-0.239,0-0.336-0.095-0.336-0.336v-0.191c0-0.161,0.08-0.352,0.144-0.546l3.616-9.967
		c0.047-0.127,0-0.189-0.112-0.189H9.428c-0.239,0-0.336-0.098-0.336-0.338v-0.094c0-0.242,0.096-0.338,0.336-0.338h4.016
		c0.239,0,0.336,0.095,0.336,0.338v0.191c0,0.158-0.079,0.352-0.143,0.543L10.02,45.792z"/>
	<path fill="#1A1715" d="M17.998,46.434l-1.872-11.357c-0.049-0.257,0.048-0.32,0.224-0.32h0.271c0.209,0,0.353,0.063,0.385,0.32
		l1.393,9.356c0.015,0.128,0.176,0.128,0.191,0l1.631-9.356c0.049-0.272,0.162-0.32,0.417-0.32h0.161
		c0.256,0,0.367,0.048,0.415,0.32l1.632,9.356c0.017,0.128,0.178,0.128,0.193,0l1.391-9.356c0.03-0.257,0.176-0.32,0.384-0.32h0.272
		c0.176,0,0.271,0.063,0.224,0.32l-1.87,11.357c-0.049,0.271-0.161,0.319-0.416,0.319h-0.161c-0.255,0-0.367-0.049-0.415-0.319
		l-1.633-9.358c-0.016-0.112-0.176-0.112-0.191,0l-1.631,9.358c-0.049,0.271-0.161,0.319-0.417,0.319h-0.162
		C18.157,46.75,18.046,46.701,17.998,46.434z"/>
	<path fill="#1A1715" d="M27.748,44.063v-6.621c0-1.872,0.992-2.814,2.399-2.814c1.408,0,2.4,0.942,2.4,2.814v6.621
		c0,1.873-0.993,2.815-2.4,2.815C28.74,46.879,27.748,45.937,27.748,44.063z M31.684,44.063v-6.621c0-1.408-0.768-1.982-1.537-1.982
		s-1.536,0.574-1.536,1.982v6.621c0,1.409,0.766,1.985,1.536,1.985C30.915,46.049,31.684,45.473,31.684,44.063z"/>
	<path fill="#1A1715" d="M39.978,46.32v0.097c0,0.239-0.095,0.336-0.335,0.336H36.3c-0.238,0-0.336-0.095-0.336-0.336V35.092
		c0-0.242,0.096-0.338,0.336-0.338h0.191c0.238,0,0.336,0.095,0.336,0.338V45.68c0,0.24,0.064,0.306,0.304,0.306h2.512
		C39.882,45.985,39.978,46.08,39.978,46.32z"/>
	<path fill="#1A1715" d="M46.697,46.32v0.097c0,0.239-0.096,0.336-0.336,0.336h-3.344c-0.239,0-0.336-0.095-0.336-0.336V35.092
		c0-0.242,0.097-0.338,0.336-0.338h0.191c0.24,0,0.337,0.095,0.337,0.338V45.68c0,0.24,0.064,0.306,0.304,0.306h2.511
		C46.602,45.985,46.697,46.08,46.697,46.32z"/>
	<path fill="#1A1715" d="M50.192,39.812c0,0.237,0.065,0.301,0.304,0.301h2.367c0.24,0,0.337,0.096,0.337,0.338v0.096
		c0,0.238-0.096,0.337-0.337,0.337h-2.367c-0.238,0-0.304,0.063-0.304,0.303v4.495c0,0.241,0.065,0.305,0.304,0.305h2.367
		c0.24,0,0.337,0.096,0.337,0.334v0.098c0,0.24-0.096,0.335-0.337,0.335h-3.198c-0.24,0-0.338-0.094-0.338-0.335V35.093
		c0-0.241,0.097-0.337,0.338-0.337h3.198c0.24,0,0.337,0.094,0.337,0.337v0.095c0,0.238-0.096,0.338-0.337,0.338h-2.367
		c-0.238,0-0.304,0.062-0.304,0.303V39.812z"/>
</g>
<g>
	<rect x="62.5" fill="#1A1715" width="62.5" height="50"/>
	<g>
		<g>
			<path fill="#FFFFFF" d="M111.584,9.71c-0.021,0.258-0.078,0.521-0.176,0.788c-0.547,1.479-1.234,1.772-3.012,2.823
				c0,0-0.154,0.102-0.309,0.074c-0.173-0.03-0.338-0.199-0.307-0.397c0.022-0.147,0.107-0.185,0.235-0.308
				c0.419-0.396,1.812-1.014,2.189-1.625c0.817-1.333,0.353-2.237,0.107-2.667l-4.218,1.258c-1.625,0.705-1.599,1.316-2.041,1.409
				c-0.441,0.093-0.273,0.717-0.168,1.689c0.103,0.916,0.595,4.272,0.595,4.272s3.312-2.821,6.231-1.153
				c2.678,1.528,4.627,6.06,3.332,11.437c-1.293,5.378-3.88,10.079-9.174,9.674c0,0-3.519-0.394-4.59-4.723
				c-1.122-4.542,0.509-9.939,1.918-12.362l0.791-1.234l-0.236-1.526L96.65,30.143c0,0,0.939,0.889,0.965,2.268
				c0,0,1.175-0.514,1.523-0.633c0.445-0.154,0.793,0.586,0.24,0.908c-0.443,0.259-1.708,0.939-1.708,0.939
				s-0.328,3.906-3.037,4.445c0,0-1.679,0.297-2.347-2.144c0,0-0.805,4.748-3.137,8.378c-0.454,0.71-0.934,1.328-1.447,1.877
				c1.212,0.23,2.478,0.35,3.789,0.35c11.748,0,22.611-9.642,24.262-21.532C116.587,19.021,114.93,13.611,111.584,9.71z"/>
			<path fill="#FFFFFF" d="M81.764,23.844c2.018-0.93,4.135-1.062,5.956-0.386l1.797-3.182c0,0-1.38-6.104-1.763-7.686
				c-0.386-1.583-1.434-1.903-1.434-1.903s-0.561,0.191-1.277,0.376c-0.722,0.186-1.01-0.21-1.568-0.489
				c-0.559-0.279-0.94-0.583,0.229-1.056c1.172-0.474,1.178-0.085,2.786-0.447s4.411-1.254,4.79-0.874
				c0.38,0.38-0.568,0.505-1.334,0.751c-0.767,0.245-1.206,0.828-1.88,1.012c-0.675,0.185,0.632,0.49,0.909,1.649
				c0.275,1.158,1.129,4.701,1.129,4.701l11.969-3.785c0,0-0.061-0.721-0.385-0.951c-0.329-0.229-1.09-0.287-0.719-0.875
				c0.375-0.586,1.586-0.306,1.848-0.803c0.262-0.496-0.136-1.242,0.855-1.124c0.679,0.082,0.422,0.665,0.422,0.665
				s3.945-1.283,5.438-1.759c-3.166-2.646-7.322-4.213-12.059-4.213c-11.748,0-22.611,9.64-24.262,21.532
				c-0.42,3.021-0.205,5.897,0.544,8.507C74.463,31.617,76.902,26.082,81.764,23.844z"/>
		</g>
		<path fill="#FFFFFF" d="M112.489,27.727c-1.059,4.695-4.305,8.035-7.177,7.387c-2.872-0.646-4.282-5.035-3.223-9.73
			c1.057-4.694,4.246-8.095,7.117-7.448C112.078,18.583,113.547,23.032,112.489,27.727z"/>
		<path fill="#FFFFFF" d="M86.817,26.344c-3.96-1.605-9.102,1.946-11.709,8.387c-0.167,0.412-0.321,0.824-0.461,1.234
			c2.122,4.748,6.163,8.322,11.341,9.811c1.239-1.373,2.332-3.095,3.143-5.098C91.738,34.24,90.779,27.947,86.817,26.344z"/>
		<path fill="#FFFFFF" d="M102.227,14.041c-0.754,1.02-1.572,1.281-1.967,1.454c-0.504,0.222-0.748,0.032-0.748-0.212
			c0-0.26,0.402-0.379,0.402-0.379c1.278-0.441,1.663-1.06,1.773-1.32c-0.059,0-0.096,0.008-0.096,0.008s-7.354,2.466-9.68,3.333
			c-1.688,0.629-1.258,1.687-1.258,1.687l3.027,12.019c0.652-0.84,1.588-1.069,1.588-1.069s6.03-13.1,6.41-13.831
			c0.532-1.026,0.656-0.944,0.566-1.585C102.234,14.067,102.246,14.143,102.227,14.041z"/>
	</g>
</g>
</svg>
